<svg version="1.1" xmlns="http://www.w3.org/2000/svg" style="display: block;" viewBox="0 0 2048 1509" width="1216" height="896" xmlns:c2pa="http://c2pa.org/manifest"><style>.rise{opacity:0;animation:rise 700ms cubic-bezier(0.32, 0.72, 0, 1) forwards;animation-delay:calc(var(--i) * 26.9ms)}@keyframes rise{from{opacity:0;translate:0 40px}to{opacity:1;translate:none}}.drift{animation:drift 6s ease-in-out 2100ms infinite}@keyframes drift{50%{translate:0 -16px}}@media (prefers-reduced-motion:reduce){.rise,.drift{animation:none;opacity:1}}</style><metadata><c2pa:manifest>AAAzs2p1bWIAAAAeanVtZGMycGEAEQAQgAAAqgA4m3EDYzJwYQAAADONanVtYgAAAEdqdW1kYzJtYQARABCAAACqADibcQN1cm46YzJwYTpjOWVlN2Y0Yy1jNjEyLTRjNTItYTA3MS1iM2QzOGUwYzBjMTEAAAAB4mp1bWIAAAApanVtZGMyYXMAEQAQgAAAqgA4m3EDYzJwYS5hc3NlcnRpb25zAAAAAO1qdW1iAAAAQWp1bWRjYm9yABEAEIAAAKoAOJtxE2MycGEuYWN0aW9ucy52MgAAAAAYYzJzaGop0b3zy5xkPauJ44Q0YmAAAACkY2JvcqFnYWN0aW9uc4GjZmFjdGlvbmxjMnBhLmNyZWF0ZWRxZGlnaXRhbFNvdXJjZVR5cGV4Rmh0dHA6Ly9jdi5pcHRjLm9yZy9uZXdzY29kZXMvZGlnaXRhbHNvdXJjZXR5cGUvdHJhaW5lZEFsZ29yaXRobWljTWVkaWFrZGVzY3JpcHRpb252Q3JlYXRlZCBieSBSZWNyYWZ0IEFJLgAAAMRqdW1iAAAAQGp1bWRjYm9yABEAEIAAAKoAOJtxE2MycGEuaGFzaC5kYXRhAAAAABhjMnNo7fMI5yussUB3iZDNL0H1RwAAAHxjYm9ypWpleGNsdXNpb25zgaJlc3RhcnQY2mZsZW5ndGgZRPBkbmFtZW5qdW1iZiBtYW5pZmVzdGNhbGdmc2hhMjU2ZGhhc2hYIEFIvRO3Ddpk7BfBxLIpDFpFtwo7ydO0+/S54fidvqs5Y3BhZEkAAAAAAAAAAAAAAAI0anVtYgAAACdqdW1kYzJjbAARABCAAACqADibcQNjMnBhLmNsYWltLnYyAAAAAgVjYm9ypmppbnN0YW5jZUlEeCx4bXA6aWlkOmVkNzdkOGYyLWE5NTItNGQ3NS1iZGI0LTE2NGFhMmM1MjdkY3RjbGFpbV9nZW5lcmF0b3JfaW5mb6NkbmFtZWpyZWNyYWZ0LmFpZ3ZlcnNpb254KDgxY2U4MmUyYzVjM2NiZmJlOGM2ZmJlMTc5ZDVmOGQ5MWM0MDljZTF3b3JnLmNvbnRlbnRhdXRoLmMycGFfcnNmMC45MC43aXNpZ25hdHVyZXhNc2VsZiNqdW1iZj0vYzJwYS91cm46YzJwYTpjOWVlN2Y0Yy1jNjEyLTRjNTItYTA3MS1iM2QzOGUwYzBjMTEvYzJwYS5zaWduYXR1cmVyY3JlYXRlZF9hc3NlcnRpb25zgqJjdXJseCpzZWxmI2p1bWJmPWMycGEuYXNzZXJ0aW9ucy9jMnBhLmFjdGlvbnMudjJkaGFzaFggFV5piXY7K9kMYIG6AvePfMb6TvEuwxdvjAe8g8AUCpSiY3VybHgpc2VsZiNqdW1iZj1jMnBhLmFzc2VydGlvbnMvYzJwYS5oYXNoLmRhdGFkaGFzaFggmB3lXaI22/HUXfPSLxiITVtYl8aatgOdxITAKcbsUa1oZGM6dGl0bGV4GlJlY3JhZnQgQUkgR2VuZXJhdGVkIEltYWdlY2FsZ2ZzaGEyNTYAAC8oanVtYgAAAChqdW1kYzJjcwARABCAAACqADibcQNjMnBhLnNpZ25hdHVyZQAAAC74Y2JvctKEWQPsogEmGCGCWQH0MIIB8DCCAZWgAwIBAgIUJcFH1Va4pZJDhzepwEtzPPNj2YMwCgYIKoZIzj0EAwIwQTELMAkGA1UEBhMCVVMxEzARBgNVBAoMClJlY3JhZnQgQUkxHTAbBgNVBAMMFFJlY3JhZnQgQzJQQSBSb290IENBMB4XDTI2MDkxMDE2NTIzNFoXDTI3MDkxMDE2NTIzNFowNzELMAkGA1UEBhMCVVMxEzARBgNVBAoMClJlY3JhZnQgQUkxEzARBgNVBAMMCnJlY3JhZnQuYWkwWTATBgcqhkjOPQIBBggqhkjOPQMBBwNCAASoOPdqG3YmNRdGd+dltfh1ikcE/nkLm8YK10H29taFa8iegusHYB1678yl5Bs18hLaV/Fhd+Ni32xAlnHdbimFo3UwczAMBgNVHRMBAf8EAjAAMA4GA1UdDwEB/wQEAwIGwDATBgNVHSUEDDAKBggrBgEFBQcDBDAdBgNVHQ4EFgQUgVwhvbEXPSSgCubOfUHxCtuoVAQwHwYDVR0jBBgwFoAUc9yF+sfWlRHeWv2Iucaec5jwdAgwCgYIKoZIzj0EAwIDSQAwRgIhAJltDpQN+vbXITLxb+8BNwSL6/5WktO4Sevkb0VXjtfWAiEAqhoz7z/sN32NxdnnZsQVTeu3P7CgGtJdXFx283fp08RZAewwggHoMIIBjaADAgECAhQAydo/NKOQWWu/4V5FktVQHX7jTDAKBggqhkjOPQQDAjBBMQswCQYDVQQGEwJVUzETMBEGA1UECgwKUmVjcmFmdCBBSTEdMBsGA1UEAwwUUmVjcmFmdCBDMlBBIFJvb3QgQ0EwHhcNMjYwOTEwMTY1MjM0WhcNMzYwOTA3MTY1MjM0WjBBMQswCQYDVQQGEwJVUzETMBEGA1UECgwKUmVjcmFmdCBBSTEdMBsGA1UEAwwUUmVjcmFmdCBDMlBBIFJvb3QgQ0EwWTATBgcqhkjOPQIBBggqhkjOPQMBBwNCAAQbQ+eF6fkpnHhTwrMxSBLh/JhROWkzsC8L8jN1r1Rlf8oECvzEFk3WujloPtNs3PLADriqR5rGtd+8giFuiTLno2MwYTAfBgNVHSMEGDAWgBRz3IX6x9aVEd5a/Yi5xp5zmPB0CDAPBgNVHRMBAf8EBTADAQH/MA4GA1UdDwEB/wQEAwIBhjAdBgNVHQ4EFgQUc9yF+sfWlRHeWv2Iucaec5jwdAgwCgYIKoZIzj0EAwIDSQAwRgIhAND2Z+xryBRnMbxk8eAzMcAq8bzl0rfA9Y2z7q5QoEUeAiEA6ZbI3e47h5clRZaARSOOotKXsK/YQMWC3vj91d3bmlOhY3BhZFkqtAAAAAAAAAAAAAAAAAAAAAAAAAAAAAAAAAAAAAAAAAAAAAAAAAAAAAAAAAAAAAAAAAAAAAAAAAAAAAAAAAAAAAAAAAAAAAAAAAAAAAAAAAAAAAAAAAAAAAAAAAAAAAAAAAAAAAAAAAAAAAAAAAAAAAAAAAAAAAAAAAAAAAAAAAAAAAAAAAAAAAAAAAAAAAAAAAAAAAAAAAAAAAAAAAAAAAAAAAAAAAAAAAAAAAAAAAAAAAAAAAAAAAAAAAAAAAAAAAAAAAAAAAAAAAAAAAAAAAAAAAAAAAAAAAAAAAAAAAAAAAAAAAAAAAAAAAAAAAAAAAAAAAAAAAAAAAAAAAAAAAAAAAAAAAAAAAAAAAAAAAAAAAAAAAAAAAAAAAAAAAAAAAAAAAAAAAAAAAAAAAAAAAAAAAAAAAAAAAAAAAAAAAAAAAAAAAAAAAAAAAAAAAAAAAAAAAAAAAAAAAAAAAAAAAAAAAAAAAAAAAAAAAAAAAAAAAAAAAAAAAAAAAAAAAAAAAAAAAAAAAAAAAAAAAAAAAAAAAAAAAAAAAAAAAAAAAAAAAAAAAAAAAAAAAAAAAAAAAAAAAAAAAAAAAAAAAAAAAAAAAAAAAAAAAAAAAAAAAAAAAAAAAAAAAAAAAAAAAAAAAAAAAAAAAAAAAAAAAAAAAAAAAAAAAAAAAAAAAAAAAAAAAAAAAAAAAAAAAAAAAAAAAAAAAAAAAAAAAAAAAAAAAAAAAAAAAAAAAAAAAAAAAAAAAAAAAAAAAAAAAAAAAAAAAAAAAAAAAAAAAAAAAAAAAAAAAAAAAAAAAAAAAAAAAAAAAAAAAAAAAAAAAAAAAAAAAAAAAAAAAAAAAAAAAAAAAAAAAAAAAAAAAAAAAAAAAAAAAAAAAAAAAAAAAAAAAAAAAAAAAAAAAAAAAAAAAAAAAAAAAAAAAAAAAAAAAAAAAAAAAAAAAAAAAAAAAAAAAAAAAAAAAAAAAAAAAAAAAAAAAAAAAAAAAAAAAAAAAAAAAAAAAAAAAAAAAAAAAAAAAAAAAAAAAAAAAAAAAAAAAAAAAAAAAAAAAAAAAAAAAAAAAAAAAAAAAAAAAAAAAAAAAAAAAAAAAAAAAAAAAAAAAAAAAAAAAAAAAAAAAAAAAAAAAAAAAAAAAAAAAAAAAAAAAAAAAAAAAAAAAAAAAAAAAAAAAAAAAAAAAAAAAAAAAAAAAAAAAAAAAAAAAAAAAAAAAAAAAAAAAAAAAAAAAAAAAAAAAAAAAAAAAAAAAAAAAAAAAAAAAAAAAAAAAAAAAAAAAAAAAAAAAAAAAAAAAAAAAAAAAAAAAAAAAAAAAAAAAAAAAAAAAAAAAAAAAAAAAAAAAAAAAAAAAAAAAAAAAAAAAAAAAAAAAAAAAAAAAAAAAAAAAAAAAAAAAAAAAAAAAAAAAAAAAAAAAAAAAAAAAAAAAAAAAAAAAAAAAAAAAAAAAAAAAAAAAAAAAAAAAAAAAAAAAAAAAAAAAAAAAAAAAAAAAAAAAAAAAAAAAAAAAAAAAAAAAAAAAAAAAAAAAAAAAAAAAAAAAAAAAAAAAAAAAAAAAAAAAAAAAAAAAAAAAAAAAAAAAAAAAAAAAAAAAAAAAAAAAAAAAAAAAAAAAAAAAAAAAAAAAAAAAAAAAAAAAAAAAAAAAAAAAAAAAAAAAAAAAAAAAAAAAAAAAAAAAAAAAAAAAAAAAAAAAAAAAAAAAAAAAAAAAAAAAAAAAAAAAAAAAAAAAAAAAAAAAAAAAAAAAAAAAAAAAAAAAAAAAAAAAAAAAAAAAAAAAAAAAAAAAAAAAAAAAAAAAAAAAAAAAAAAAAAAAAAAAAAAAAAAAAAAAAAAAAAAAAAAAAAAAAAAAAAAAAAAAAAAAAAAAAAAAAAAAAAAAAAAAAAAAAAAAAAAAAAAAAAAAAAAAAAAAAAAAAAAAAAAAAAAAAAAAAAAAAAAAAAAAAAAAAAAAAAAAAAAAAAAAAAAAAAAAAAAAAAAAAAAAAAAAAAAAAAAAAAAAAAAAAAAAAAAAAAAAAAAAAAAAAAAAAAAAAAAAAAAAAAAAAAAAAAAAAAAAAAAAAAAAAAAAAAAAAAAAAAAAAAAAAAAAAAAAAAAAAAAAAAAAAAAAAAAAAAAAAAAAAAAAAAAAAAAAAAAAAAAAAAAAAAAAAAAAAAAAAAAAAAAAAAAAAAAAAAAAAAAAAAAAAAAAAAAAAAAAAAAAAAAAAAAAAAAAAAAAAAAAAAAAAAAAAAAAAAAAAAAAAAAAAAAAAAAAAAAAAAAAAAAAAAAAAAAAAAAAAAAAAAAAAAAAAAAAAAAAAAAAAAAAAAAAAAAAAAAAAAAAAAAAAAAAAAAAAAAAAAAAAAAAAAAAAAAAAAAAAAAAAAAAAAAAAAAAAAAAAAAAAAAAAAAAAAAAAAAAAAAAAAAAAAAAAAAAAAAAAAAAAAAAAAAAAAAAAAAAAAAAAAAAAAAAAAAAAAAAAAAAAAAAAAAAAAAAAAAAAAAAAAAAAAAAAAAAAAAAAAAAAAAAAAAAAAAAAAAAAAAAAAAAAAAAAAAAAAAAAAAAAAAAAAAAAAAAAAAAAAAAAAAAAAAAAAAAAAAAAAAAAAAAAAAAAAAAAAAAAAAAAAAAAAAAAAAAAAAAAAAAAAAAAAAAAAAAAAAAAAAAAAAAAAAAAAAAAAAAAAAAAAAAAAAAAAAAAAAAAAAAAAAAAAAAAAAAAAAAAAAAAAAAAAAAAAAAAAAAAAAAAAAAAAAAAAAAAAAAAAAAAAAAAAAAAAAAAAAAAAAAAAAAAAAAAAAAAAAAAAAAAAAAAAAAAAAAAAAAAAAAAAAAAAAAAAAAAAAAAAAAAAAAAAAAAAAAAAAAAAAAAAAAAAAAAAAAAAAAAAAAAAAAAAAAAAAAAAAAAAAAAAAAAAAAAAAAAAAAAAAAAAAAAAAAAAAAAAAAAAAAAAAAAAAAAAAAAAAAAAAAAAAAAAAAAAAAAAAAAAAAAAAAAAAAAAAAAAAAAAAAAAAAAAAAAAAAAAAAAAAAAAAAAAAAAAAAAAAAAAAAAAAAAAAAAAAAAAAAAAAAAAAAAAAAAAAAAAAAAAAAAAAAAAAAAAAAAAAAAAAAAAAAAAAAAAAAAAAAAAAAAAAAAAAAAAAAAAAAAAAAAAAAAAAAAAAAAAAAAAAAAAAAAAAAAAAAAAAAAAAAAAAAAAAAAAAAAAAAAAAAAAAAAAAAAAAAAAAAAAAAAAAAAAAAAAAAAAAAAAAAAAAAAAAAAAAAAAAAAAAAAAAAAAAAAAAAAAAAAAAAAAAAAAAAAAAAAAAAAAAAAAAAAAAAAAAAAAAAAAAAAAAAAAAAAAAAAAAAAAAAAAAAAAAAAAAAAAAAAAAAAAAAAAAAAAAAAAAAAAAAAAAAAAAAAAAAAAAAAAAAAAAAAAAAAAAAAAAAAAAAAAAAAAAAAAAAAAAAAAAAAAAAAAAAAAAAAAAAAAAAAAAAAAAAAAAAAAAAAAAAAAAAAAAAAAAAAAAAAAAAAAAAAAAAAAAAAAAAAAAAAAAAAAAAAAAAAAAAAAAAAAAAAAAAAAAAAAAAAAAAAAAAAAAAAAAAAAAAAAAAAAAAAAAAAAAAAAAAAAAAAAAAAAAAAAAAAAAAAAAAAAAAAAAAAAAAAAAAAAAAAAAAAAAAAAAAAAAAAAAAAAAAAAAAAAAAAAAAAAAAAAAAAAAAAAAAAAAAAAAAAAAAAAAAAAAAAAAAAAAAAAAAAAAAAAAAAAAAAAAAAAAAAAAAAAAAAAAAAAAAAAAAAAAAAAAAAAAAAAAAAAAAAAAAAAAAAAAAAAAAAAAAAAAAAAAAAAAAAAAAAAAAAAAAAAAAAAAAAAAAAAAAAAAAAAAAAAAAAAAAAAAAAAAAAAAAAAAAAAAAAAAAAAAAAAAAAAAAAAAAAAAAAAAAAAAAAAAAAAAAAAAAAAAAAAAAAAAAAAAAAAAAAAAAAAAAAAAAAAAAAAAAAAAAAAAAAAAAAAAAAAAAAAAAAAAAAAAAAAAAAAAAAAAAAAAAAAAAAAAAAAAAAAAAAAAAAAAAAAAAAAAAAAAAAAAAAAAAAAAAAAAAAAAAAAAAAAAAAAAAAAAAAAAAAAAAAAAAAAAAAAAAAAAAAAAAAAAAAAAAAAAAAAAAAAAAAAAAAAAAAAAAAAAAAAAAAAAAAAAAAAAAAAAAAAAAAAAAAAAAAAAAAAAAAAAAAAAAAAAAAAAAAAAAAAAAAAAAAAAAAAAAAAAAAAAAAAAAAAAAAAAAAAAAAAAAAAAAAAAAAAAAAAAAAAAAAAAAAAAAAAAAAAAAAAAAAAAAAAAAAAAAAAAAAAAAAAAAAAAAAAAAAAAAAAAAAAAAAAAAAAAAAAAAAAAAAAAAAAAAAAAAAAAAAAAAAAAAAAAAAAAAAAAAAAAAAAAAAAAAAAAAAAAAAAAAAAAAAAAAAAAAAAAAAAAAAAAAAAAAAAAAAAAAAAAAAAAAAAAAAAAAAAAAAAAAAAAAAAAAAAAAAAAAAAAAAAAAAAAAAAAAAAAAAAAAAAAAAAAAAAAAAAAAAAAAAAAAAAAAAAAAAAAAAAAAAAAAAAAAAAAAAAAAAAAAAAAAAAAAAAAAAAAAAAAAAAAAAAAAAAAAAAAAAAAAAAAAAAAAAAAAAAAAAAAAAAAAAAAAAAAAAAAAAAAAAAAAAAAAAAAAAAAAAAAAAAAAAAAAAAAAAAAAAAAAAAAAAAAAAAAAAAAAAAAAAAAAAAAAAAAAAAAAAAAAAAAAAAAAAAAAAAAAAAAAAAAAAAAAAAAAAAAAAAAAAAAAAAAAAAAAAAAAAAAAAAAAAAAAAAAAAAAAAAAAAAAAAAAAAAAAAAAAAAAAAAAAAAAAAAAAAAAAAAAAAAAAAAAAAAAAAAAAAAAAAAAAAAAAAAAAAAAAAAAAAAAAAAAAAAAAAAAAAAAAAAAAAAAAAAAAAAAAAAAAAAAAAAAAAAAAAAAAAAAAAAAAAAAAAAAAAAAAAAAAAAAAAAAAAAAAAAAAAAAAAAAAAAAAAAAAAAAAAAAAAAAAAAAAAAAAAAAAAAAAAAAAAAAAAAAAAAAAAAAAAAAAAAAAAAAAAAAAAAAAAAAAAAAAAAAAAAAAAAAAAAAAAAAAAAAAAAAAAAAAAAAAAAAAAAAAAAAAAAAAAAAAAAAAAAAAAAAAAAAAAAAAAAAAAAAAAAAAAAAAAAAAAAAAAAAAAAAAAAAAAAAAAAAAAAAAAAAAAAAAAAAAAAAAAAAAAAAAAAAAAAAAAAAAAAAAAAAAAAAAAAAAAAAAAAAAAAAAAAAAAAAAAAAAAAAAAAAAAAAAAAAAAAAAAAAAAAAAAAAAAAAAAAAAAAAAAAAAAAAAAAAAAAAAAAAAAAAAAAAAAAAAAAAAAAAAAAAAAAAAAAAAAAAAAAAAAAAAAAAAAAAAAAAAAAAAAAAAAAAAAAAAAAAAAAAAAAAAAAAAAAAAAAAAAAAAAAAAAAAAAAAAAAAAAAAAAAAAAAAAAAAAAAAAAAAAAAAAAAAAAAAAAAAAAAAAAAAAAAAAAAAAAAAAAAAAAAAAAAAAAAAAAAAAAAAAAAAAAAAAAAAAAAAAAAAAAAAAAAAAAAAAAAAAAAAAAAAAAAAAAAAAAAAAAAAAAAAAAAAAAAAAAAAAAAAAAAAAAAAAAAAAAAAAAAAAAAAAAAAAAAAAAAAAAAAAAAAAAAAAAAAAAAAAAAAAAAAAAAAAAAAAAAAAAAAAAAAAAAAAAAAAAAAAAAAAAAAAAAAAAAAAAAAAAAAAAAAAAAAAAAAAAAAAAAAAAAAAAAAAAAAAAAAAAAAAAAAAAAAAAAAAAAAAAAAAAAAAAAAAAAAAAAAAAAAAAAAAAAAAAAAAAAAAAAAAAAAAAAAAAAAAAAAAAAAAAAAAAAAAAAAAAAAAAAAAAAAAAAAAAAAAAAAAAAAAAAAAAAAAAAAAAAAAAAAAAAAAAAAAAAAAAAAAAAAAAAAAAAAAAAAAAAAAAAAAAAAAAAAAAAAAAAAAAAAAAAAAAAAAAAAAAAAAAAAAAAAAAAAAAAAAAAAAAAAAAAAAAAAAAAAAAAAAAAAAAAAAAAAAAAAAAAAAAAAAAAAAAAAAAAAAAAAAAAAAAAAAAAAAAAAAAAAAAAAAAAAAAAAAAAAAAAAAAAAAAAAAAAAAAAAAAAAAAAAAAAAAAAAAAAAAAAAAAAAAAAAAAAAAAAAAAAAAAAAAAAAAAAAAAAAAAAAAAAAAAAAAAAAAAAAAAAAAAAAAAAAAAAAAAAAAAAAAAAAAAAAAAAAAAAAAAAAAAAAAAAAAAAAAAAAAAAAAAAAAAAAAAAAAAAAAAAAAAAAAAAAAAAAAAAAAAAAAAAAAAAAAAAAAAAAAAAAAAAAAAAAAAAAAAAAAAAAAAAAAAAAAAAAAAAAAAAAAAAAAAAAAAAAAAAAAAAAAAAAAAAAAAAAAAAAAAAAAAAAAAAAAAAAAAAAAAAAAAAAAAAAAAAAAAAAAAAAAAAAAAAAAAAAAAAAAAAAAAAAAAAAAAAAAAAAAAAAAAAAAAAAAAAAAAAAAAAAAAAAAAAAAAAAAAAAAAAAAAAAAAAAAAAAAAAAAAAAAAAAAAAAAAAAAAAAAAAAAAAAAAAAAAAAAAAAAAAAAAAAAAAAAAAAAAAAAAAAAAAAAAAAAAAAAAAAAAAAAAAAAAAAAAAAAAAAAAAAAAAAAAAAAAAAAAAAAAAAAAAAAAAAAAAAAAAAAAAAAAAAAAAAAAAAAAAAAAAAAAAAAAAAAAAAAAAAAAAAAAAAAAAAAAAAAAAAAAAAAAAAAAAAAAAAAAAAAAAAAAAAAAAAAAAAAAAAAAAAAAAAAAAAAAAAAAAAAAAAAAAAAAAAAAAAAAAAAAAAAAAAAAAAAAAAAAAAAAAAAAAAAAAAAAAAAAAAAAAAAAAAAAAAAAAAAAAAAAAAAAAAAAAAAAAAAAAAAAAAAAAAAAAAAAAAAAAAAAAAAAAAAAAAAAAAAAAAAAAAAAAAAAAAAAAAAAAAAAAAAAAAAAAAAAAAAAAAAAAAAAAAAAAAAAAAAAAAAAAAAAAAAAAAAAAAAAAAAAAAAAAAAAAAAAAAAAAAAAAAAAAAAAAAAAAAAAAAAAAAAAAAAAAAAAAAAAAAAAAAAAAAAAAAAAAAAAAAAAAAAAAAAAAAAAAAAAAAAAAAAAAAAAAAAAAAAAAAAAAAAAAAAAAAAAAAAAAAAAAAAAAAAAAAAAAAAAAAAAAAAAAAAAAAAAAAAAAAAAAAAAAAAAAAAAAAAAAAAAAAAAAAAAAAAAAAAAAAAAAAAAAAAAAAAAAAAAAAAAAAAAAAAAAAAAAAAAAAAAAAAAAAAAAAAAAAAAAAAAAAAAAAAAAAAAAAAAAAAAAAAAAAAAAAAAAAAAAAAAAAAAAAAAAAAAAAAAAAAAAAAAAAAAAAAAAAAAAAAAAAAAAAAAAAAAAAAAAAAAAAAAAAAAAAAAAAAAAAAAAAAAAAAAAAAAAAAAAAAAAAAAAAAAAAAAAAAAAAAAAAAAAAAAAAAAAAAAAAAAAAAAAAAAAAAAAAAAAAAAAAAAAAAAAAAAAAAAAAAAAAAAAAAAAAAAAAAAAAAAAAAAAAAAAAAAAAAAAAAAAAAAAAAAAAAAAAAAAAAAAAAAAAAAAAAAAAAAAAAAAAAAAAAAAAAAAAAAAAAAAAAAAAAAAAAAAAAAAAAAAAAAAAAAAAAAAAAAAAAAAAAAAAAAAAAAAAAAAAAAAAAAAAAAAAAAAAAAAAAAAAAAAAAAAAAAAAAAAAAAAAAAAAAAAAAAAAAAAAAAAAAAAAAAAAAAAAAAAAAAAAAAAAAAAAAAAAAAAAAAAAAAAAAAAAAAAAAAAAAAAAAAAAAAAAAAAAAAAAAAAAAAAAAAAAAAAAAAAAAAAAAAAAAAAAAAAAAAAAAAAAAAAAAAAAAAAAAAAAAAAAAAAAAAAAAAAAAAAAAAAAAAAAAAAAAAAAAAAAAAAAAAAAAAAAAAAAAAAAAAAAAAAAAAAAAAAAAAAAAAAAAAAAAAAAAAAAAAAAAAAAAAAAAAAAAAAAAAAAAAAAAAAAAAAAAAAAAAAAAAAAAAAAAAAAAAAAAAAAAAAAAAAAAAAAAAAAAAAAAAAAAAAAAAAAAAAAAAAAAAAAAAAAAAAAAAAAAAAAAAAAAAAAAAAAAAAAAAAAAAAAAAAAAAAAAAAAAAAAAAAAAAAAAAAAAAAAAAAAAAAAAAAAAAAAAAAAAAAAAAAAAAAAAAAAAAAAAAAAAAAAAAAAAAAAAAAAAAAAAAAAAAAAAAAAAAAAAAAAAAAAAAAAAAAAAAAAAAAAAAAAAAAAAAAAAAAAAAAAAAAAAAAAAAAAAAAAAAAAAAAAAAAAAAAAAAAAAAAAAAAAAAAAAAAAAAAAAAAAAAAAAAAAAAAAAAAAAAAAAAAAAAAAAAAAAAAAAAAAAAAAAAAAAAAAAAAAAAAAAAAAAAAAAAAAAAAAAAAAAAAAAAAAAAAAAAAAAAAAAAAAAAAAAAAAAAAAAAAAAAAAAAAAAAAAAAAAAAAAAAAAAAAAAAAAAAAAAAAAAAAAAAAAAAAAAAAAAAAAAAAAAAAAAAAAAAAAAAAAAAAAAAAAAAAAAAAAAAAAAAAAAAAAAAAAAAAAAAAAAAAAAAAAAAAAAAAAAAAAAAAAAAAAAAAAAAAAAAAAAAAAAAAAAAAAAAAAAAAAAAAAAAAAAAAAAAAAAAAAAAAAAAAAAAAAAAAAAAAAAAAAAAAAAAAAAAAAAAAAAAAAAAAAAAAAAAAAAAAAAAAAAAAAAAAAAAAAAAAAAAAAAAAAAAAAAAAAAAAAAAAAAAAAAAAAAAAAAAAAAAAAAAAAAAAAAAAAAAAAAAAAAAAAAAAAAAAAAAAAAAAAAAAAAAAAAAAAAAAAAAAAAAAAAAAAAAAAAAAAAAAAAAAAAAAAAAAAAAAAAAAAAAAAAAAAAAAAAAAAAAAAAAAAAAAAAAAAAAAAAAAAAAAAAAAAAAAAAAAAAAAAAAAAAAAAAAAAAAAAAAAAAAAAAAAAAAAAAAAAAAAAAAAAAAAAAAAAAAAAAAAAAAAAAAAAAAAAAAAAAAAAAAAAAAAAAAAAAAAAAAAAAAAAAAAAAAAAAAAAAAAAAAAAAAAAAAAAAAAAAAAAAAAAAAAAAAAAAAAAAAAAAAAAAAAAAAAAAAAAAAAAAAAAAAAAAAAAAAAAAAAAAAAAAAAAAAAAAAAAAAAAAAAAAAAAAAAAAAAAAAAAAAAAAAAAAAAAAAAAAAAAAAAAAAAAAAAAAAAAAAAAAAAAAAAAAAAAAAAAAAAAAAAAAAAAAAAAAAAAAAAAAAAAAAAAAAAAAAAAAAAAAAAAAAAAAAAAAAAAAAAAAAAAAAAAAAAAAAAAAAAAAAAAAAAAAAAAAAAAAAAAAAAAAAAAAAAAAAAAAAAAAAAAAAAAAAAAAAAAAAAAAAAAAAAAAAAAAAAAAAAAAAAAAAAAAAAAAAAAAAAAAAAAAAAAAAAAAAAAAAAAAAAAAAAAAAAAAAAAAAAAAAAAAAAAAAAAAAAAAAAAAAAAAAAAAAAAAAAAAAAAAAAAAAAAAAAAAAAAAAAAAAAAAAAAAAAAAAAAAAAAAAAAAAAAAAAAAAAAAAAAAAAAAAAAAAAAAAAAAAAAAAAAAAAAAAAAAAAAAAAAAAAAAAAAAAAAAAAAAAAAAAAAAAAAAAAAAAAAAAAAAAAAAAAAAAAAAAAAAAAAAAAAAAAAAAAAAAAAAAAAAAAAAAAAAAAAAAAAAAAAAAAAAAAAAAAAAAAAAAAAAAAAAAAAAAAAAAAAAAAAAAAAAAAAAAAAAAAAAAAAAAAAAAAAAAAAAAAAAAAAAAAAAAAAAAAAAAAAAAAAAAAAAAAAAAAAAAAAAAAAAAAAAAAAAAAAAAAAAAAAAAAAAAAAAAAAAAAAAAAAAAAAAAAAAAAAAAAAAAAAAAAAAAAAAAAAAAAAAAAAAAAAAAAAAAAAAAAAAAAAAAAAAAAAAAAAAAAAAAAAAAAAAAAAAAAAAAAAAAAAAAAAAAAAAAAAAAAAAAAAAAAAAAAAAAAAAAAAAAAAAAAAAAAAAAAAAAAAAAAAAAAAAAAAAAAAAAAAAAAAAAAAAAAAAAAAAAAAAAAAAAAAAAAAAAAAAAAAAAAAAAAAAAAAAAAAAAAAAAAAAAAAAAAAAAAAAAAAAAAAAAAAAAAAAAAAAAAAAAAAAAAAAAAAAAAAAAAAAAAAAAAAAAAAAAAAAAAAAAAAAAAAAAAAAAAAAAAAAAAAAAAAAAAAAAAAAAAAAAAAAAAAAAAAAAAAAAAAAAAAAAAAAAAAAAAAAAAAAAAAAAAAAAAAAAAAAAAAAAAAAAAAAAAAAAAAAAAAAAAAAAAAAAAAAAAAAAAAAAAAAAAAAAAAAAAAAAAAAAAAAAAAAAAAAAAAAAAAAAAAAAAAAAAAAAAAAAAAAAAAAAAAAAAAAAAAAAAAAAAAAAAAAAAAAAAAAAAAAAAAAAAAAAAAAAAAAAAAAAAAAAAAAAAAAAAAAAAAAAAAAAAAAAAAAAAAAAAAAAAAAAAAAAAAAAAAAAAAAAAAAAAAAAAAAAAAAAAAAAAAAAAAAAAAAAAAAAAAAAAAAAAAAAAAAAAAAAAAAAAAAAAAAAAAAAAAAAAAAAAAAAAAAAAAAAAAAAAAAAAAAAAAAAAAAAAAAAAAAAAAAAAAAAAAAAAAAAAAAAAAAAAAAAAAAAAAAAAAAAAAAAAAAAAAAAAAAAAAAAAAAAAAAAAAAAAAAAAAAAAAAAAAAAAAAAAAAAAAAAAAAAAAAAAAAAAAAAAAAAAAAAAAAAAAAAAAAAAAAAAAAAAAAAAAAAAAAAAAAAAAAAAAAAAAAAAAAAAAAAAAAAAAAAAAAAAAAAAAAAAAAAAAAAAAAAAAAAAAAAAAAAAAAAAAAAAAAAAAAAAAAAAAAAAAAAAAAAAAAAAAAAAAAAAAAAAAAAAAAAAAAAAAAAAAAAAAAAAAAAAAAAAAAAAAAAAAAAAAAAAAAAAAAAAAAAAAAAAAAAAAAAAAAAAAAAAAAAAAAAAAAAAAAAAAAAAAAAAAAAAAAAAAAAAAAAAAAAAAAAAAAAAAAAAAAAAAAAAAAAAAAAAAAAAAAAAAAAAAAAAAAAAAAAAAAAAAAAAAAAAAAAAAAAAAAAAAAAAAAAAAAAAAAAAAAAAAAAAAAAAAAAAAAAAAAAAAAAAAAAAAAAAAAAAAAAAAAAAAAAAAAAAAAAAAAAAAAAAAAAAAAAAAAAAAAAAAAAAAAAAAAAAAAAAAAAAAAAAAAAAAAAAAAAAAAAAAAAAAAAAAAAAAAAAAAAAAAAAAAAAAAAAAAAAAAAAAAAAAAAAAAAAAAAAAAAAAAAAAAAAAAAAAAAAAAAAAAAAAAAAAAAAAAAAAAAAAAAAAAAAAAAAAAAAAAAAAAAAAAAAAAAAAAAAAAAAAAAAAAAAAAAAAAAAAAAAAAAAAAAAAAAAAAAAAAAAAAAAAAAAAAAAAAAAAAAAAAAAAAAAAAAAAAAAAAAAAAAAAAAAAAAAAAAAAAAAAAAAAAAAAAAAAAAAAAAAAAAAAAAAAAAAAAAAAAAAAAAAAAAAAAAAAAAAAAAAAAAAAAAAAAAAAAAAAAAAAAAAAAAAAAAAAAAAAAAAAAAAAAAAAAAAAAAAAAAAAAAAAAAAAAAAAAAAAAAAAAAAAAAAAAAAAAAAAAAAAAAAAAAAAAAAAAAAAAAAAAAAAAAAAAAAAAAAAAAAAAAAAAAAAAAAAAAAAAAAAAAAAAAAAAAAAAAAAAAAAAAAAAAAAAAAAAAAAAAAAAAAAAAAAAAAAAAAAAAAAAAAAAAAAAAAAAAAAAAAAAAAAAAAAAAAAAAAAAAAAAAAAAAAAAAAAAAAAAAAAAAAAAAAAAAAAAAAAAAAAAAAAAAAAAAAAAAAAAAAAAAAAAAAAAAAAAAAAAAAAAAAAAAAAAAAAAAAAAAAAAAAAAAAAAAAAAAAAAAAAAAAAAAAAAAAAAAAAAAAAAAAAAAAAAAAAAAAAAAAAAAAAAAAAAAAAAAAAAAAAAAAAAAAAAAAAAAAAAAAAAAAAAAAAAAAAAAAAAAAAAAAAAAAAAAAAAAAAAAAAAAAAAAAAAAAAAAAAAAAAAAAAAAAAAAAAAAAAAAAAAAAAAAAAAAAAAAAAAAAAAAAAAAAAAAAAAAAAAAAAAAAAAAAAAAAAAAAAAAAAAAAAAAAAAAAAAAAAAAAAAAAAAAAAAAAAAAAAAAAAAAAAAAAAAAAAAAAAAAAAAAAAAAAAAAAAAAAAAAAAAAAAAAAAAAAAAAAAAAAAAAAAAAAAAAAAAAAAAAAAAAAAAAAAAAAAAAAAAAAAAAAAAAAAAAAAAAAAAAAAAAAAAAAAAAAAAAAAAAAAAAAAAAAAAAAAAAAAAAAAAAAAAAAAAAAAAAAAAAAAAAAAAAAAAAAAAAAAAAAAAAAAAAAAAAAAAAAAAAAAAAAAAAAAAAAAAAAAAAAAAAAAAAAAAAAAAAAAAAAAAAAAAAAAAAAAAAAAAAAAAAAAAAAAAAAAAAAAAAAAAAAAAAAAAAAAAAAAAAAAAAAAAAAAAAAAAAAAAAAAAAAAAAAAAAAAAAAAAAAAAAAAAAAAAAAAAAAAAAAAAAAAAAAAAAAAAAAAAAAAAAAAAAAAAAAAAAAAAAAAAAAAAAAAAAAAAAAAAAAAAAAAAAAAAAAAAAAAAAAAAAAAAAAAAAAAAAAAAAAAAAAAAAAAAAAAAAAAAAAAAAAAAAAAAAAAAAAAAAAAAAAAAAAAAAAAAAAAAAAAAAAAAAAAAAAAAAAAAAAAAAAAAAAAAAAAAAAAAAAAAAAAAAAAAAAAAAAAAAAAAAAAAAAAAAAAAAAAAAAAAAAAAAAAAAAAAAAAAAAAAAAAAAAAAAAAAAAAAAAAAAAAAAAAAAAAAAAAAAAAAAAAAAAAAAAAAAAAAAAAAAAAAAAAAAAAAAAAAAAAAAAAAAAAAAAAAAAAAAAAAAAAAAAAAAAAAAAAAAAAAAAAAAAAAAAAAAAAAAAAAAAAAAAAAAAAAAAAAAAAAAAAAAAAAAAAAAAAAAAAAAAAAAAAAAAAAAAAAAAAAAAAAAAAAAAAAAAAAAAAAAAAAAAAAAAAAAAAAAAAAAAAAAAAAAAAAAAAAAAAAAAAAAAAAAAAAAAAAAAAAAAAAAAAAAAAAAAAAAAAAAAAAAAAAAAAAAAAAAAAAAAAAAAAAAAAAAAAAAAAAAAAAAAAAAAAAAAAAAAAAAAAAAAAAAAAAAAAAAAAAAAAAAAAAAAAAAAAAAAAAAAAAAAAAAAAAAAAAAAAAAAAAAAAAAAAAAAAAAAAAAAAAAAAAAAAAAAAAAAAAAAAAAAAAAAAAAAAAAAAAAAAAAAAAAAAAAAAAAAAAAAAAAAAAAAAAAAAAAAAAAAAAAAAAAAAAAAAAAAAAAAAAAAAAAAAAAAAAAAAAAAAAAAAAAAAAAAAAAAAAAAAAAAAAAAAAAAAAAAAAAAAAAAAAAAAAAAAAAAAAAAAAAAAAAAAAAAAAAAAAAAAAAAAAAAAAAAAAAAAAAAAAAAAAAAAAAAAAAAAAAAAAAAAAAAAAAAAAAAAAAAAAAAAAAAAAAAAAAAAAAAAAAAAAAAAAAAAAAAAAAAAAAAAAAAAAAAAAAAAAAAAAAAAAAAAAAAAAAAAAAAAAAAAAAAAAAAAAAAAAAAAAAAAAAAAAAAAAAAAAAAAAAAAAAAAAAAAAAAAAAAAAAAAAAAAAAAAAAAAAAAAAAAAAAAAAAAAAAAAAAAAAAAAAAAAAAAAAAAAAAAAAAAAAAAAAAAAAAAAAAAAAAAAAAAAAAAAAAAAAAAAAAAAAAAAAAAAAAAAAAAAAAAAAAAAAAAAAAAAAAAAAAAAAAAAAAAAAAAAAAAAAAAAAAAAAAAAAAAAAAAAAAAAAAAAAAAAAAAAAAAAAAAAAAAAAAAAAAAAAAAAAAAAAAAAAAAAAAAAAAAAAAAAAAAAAAAAAAAAAAAAAAAAAAAAAAAAAAAAAAAAAAAAAAAAAAAAAAAAAAAAAAAAAAAAAAAAAAAAAAAAAAAAAAAAAAAAAAAAAAAAAAAAAAAAAAAAAAAAAAAAAAAAAAAAAAAAAAAAAAAAAAAAAAAAAAAAAAAAAAAAAAAAAAAAAAAAAAAAAAAAAAAAAAAAAAAAAAAAAAAAAAAAAAAAAAAAAAAAAAAAAAAAAAAAAAAAAAAAAAAAAAAAAAAAAAAAAAAAAAAAAAAAAAAAAAAAAAAAAAAAAAAAAAAAAAAAAAAAAAAAAAAAAAAAAAAAAAAAAAAAAAAAAAAAAAAAAAAAAAAAAAAAAAAAAAAAAAAAAAAAAAAAAAAAAAAAAAAAAAAAAAAAAAAAAAAAAAAAAAAAAAAAAAAAAAAAAAAAAAAAAAAAAAAAAAAAAAAAAAAAAAAAAAAAAAAAAAAAAAAAAAAAAAAAAAAAAAAAAAAAAAAAAAAAAAAAAAAAAAAAAAAAAAAAAAAAAAAAAAAAAAAAAAAAAAAAAAAAAAAAAAAAAAAAAAAAAAAAAAAAAAAAAAAAAAAAAAAAAAAAAAAAAAAAAAAAAAAAAAAAAAAAAAAAAAAAAAAAAAAAAAAAAAAAAAAAAAAAAAAAAAAAAAAAAAAAAAAAAAAAAAAAAAAAAAAAAAAAAAAAAAAAAAAAPZYQMYV03X6UnAKTqrTHjHo3Tkeey7CysVwvGtvxDc2D1/b8z+YHulF1jHf1c6tbtUnkl0PQbCx1lWX1vbeZDvu5p4=</c2pa:manifest></metadata>
<path transform="translate(0,0)" fill="#ffffff" d="M 0 0 L 2048 0 L 2048 1509 L 0 1509 L 0 0 z"/>




















































<g class="drift"><path transform="translate(0,0)" fill="#284b63" d="M 987.038 182.757 C 986.77 163.839 983.452 145.491 996.963 131.352 C 1004.16 123.937 1014.02 119.695 1024.35 119.565 C 1035.15 119.339 1045.59 123.462 1053.32 131.008 C 1062.42 139.968 1064.42 149.353 1064.37 161.581 C 1064.32 168.614 1064.23 175.646 1064.08 182.678 L 1328.14 182.866 L 1398.57 182.859 C 1409.07 182.86 1430.58 182.377 1440.01 183.934 C 1451.46 185.91 1462 191.448 1470.12 199.758 C 1478.25 207.91 1483.46 218.529 1484.91 229.952 C 1486.57 242.467 1485.86 268.985 1485.86 282.579 L 1485.87 379.065 L 1485.81 820.564 L 1485.73 957.196 C 1485.71 978.592 1485.54 1001.05 1485.97 1022.53 C 1486 1024.28 1486.65 1025.31 1487.84 1026.37 C 1498.36 1027.06 1501.92 1033.17 1507.71 1040.79 C 1520.31 1041.33 1540.66 1043.15 1552.5 1046.88 C 1608.38 1064.49 1631.73 1074.48 1687.71 1047.15 C 1691.72 1053.62 1698.15 1063.41 1701.55 1069.92 C 1680.2 1083.58 1668.89 1086.3 1644.58 1091.36 L 1640.92 1091.89 L 1640.1 1091.85 L 1636.67 1091.58 L 1635.78 1093.16 C 1633.07 1092 1606.09 1092.94 1600.18 1092.25 C 1567.15 1088.35 1535.1 1076.31 1502.6 1069.35 C 1494.66 1074.36 1492.28 1075.2 1482.99 1076.54 L 1480.13 1076.2 C 1473.85 1076.02 1472.06 1075.01 1466.1 1073.07 C 1431 1083.6 1399.3 1093.13 1362.4 1093.77 C 1357.56 1093.85 1335.9 1092.08 1333.47 1093.45 C 1333.14 1090.97 1333.76 1091.84 1332.09 1090.47 L 1329.42 1092.52 L 1328.45 1092.15 C 1326.12 1090.93 1327.32 1091.16 1324.71 1091.43 C 1309.34 1087.75 1298.6 1082.49 1282.94 1083.15 L 1217.75 1082.92 C 1231.38 1103.93 1226.96 1132.51 1198.91 1137.84 C 1185.37 1140.42 1163.41 1139.06 1148.9 1139.04 L 1063.88 1139.13 L 1063.98 1310.21 L 1171.22 1310.26 C 1184.31 1310.27 1215.66 1309.42 1227.02 1311.46 C 1232.91 1312.53 1238.41 1315.18 1242.92 1319.13 C 1249.67 1324.89 1253.85 1333.11 1254.51 1341.96 C 1256.06 1363.58 1238.34 1378.25 1217.85 1378.59 C 1189.75 1379.05 1161.71 1378.94 1133.6 1378.93 L 977.852 1378.94 L 876.882 1378.99 C 859.716 1379 840.983 1379.72 823.995 1378.32 C 807.923 1377 794.608 1360.37 794.321 1344.61 C 794.146 1335.78 797.595 1327.26 803.865 1321.04 C 818.962 1306.1 858.505 1310.32 879.419 1310.3 L 987.075 1310.24 L 987.101 1139.23 C 951.146 1138.64 915.014 1139.51 879.043 1139.07 C 866.183 1138.91 852.255 1140.34 841.001 1132.97 C 833.888 1128.29 829.009 1120.89 827.503 1112.51 C 825.293 1100.73 828.857 1091.85 835.312 1082.36 L 746.961 1082.35 C 746.886 1099.52 723.483 1131.43 710.911 1143.93 C 681.784 1173.1 642.145 1189.32 600.926 1188.94 C 562.627 1188.76 540.549 1179.44 508.429 1161.03 C 507.587 1160.45 506.753 1159.85 505.926 1159.25 C 478.311 1141.13 454.34 1106.28 446.962 1074.27 C 438.469 1037.89 444.793 999.623 464.538 967.907 C 487.807 930.679 522.674 908.701 564.952 898.881 L 564.9 557.073 C 564.889 497.159 563.779 432.924 565.167 373.349 L 564.934 279.402 C 564.917 223.758 561.438 183.489 632.871 182.821 C 750.744 181.72 869.239 184.559 987.038 182.757 z" class="rise" style="--i:0"/><path transform="translate(0,0)" fill="#353535" d="M 836.903 434.713 C 845.016 433.634 862.361 434.108 871.06 434.127 L 930.961 434.25 L 990.548 434.408 C 998.95 434.435 1016.4 434.079 1023.89 435.231 C 1025.24 436.752 1026.04 437.413 1027.59 438.773 C 1032.92 438.927 1031.83 436.537 1036.59 435.228 C 1038.17 434.795 1044.22 434.854 1046.26 434.785 C 1102.6 436.029 1160.33 433.133 1216.78 435.573 C 1222.61 435.824 1224.24 438.766 1230.27 436.852 L 1232.63 435.156 C 1254.61 433.84 1403.81 433.038 1417.38 436.849 C 1419.5 439.327 1420.39 447.402 1420.41 450.75 C 1420.72 507.771 1420.86 564.901 1419.95 621.911 C 1419.93 623.016 1419.7 624.137 1419.42 625.201 L 1420.03 626.065 L 1416.89 629.298 L 1416.37 630.673 C 1419.26 634.327 1419.85 634.066 1420.15 638.81 C 1420.72 647.643 1420.5 657.061 1420.51 665.931 L 1420.58 717.866 L 1420.61 777.507 C 1420.6 790.13 1420.99 802.91 1419.74 815.472 C 1419.16 821.342 1417.17 822.877 1416.42 826.541 C 1357.04 829.44 1295.07 824.397 1235.5 827.139 C 1232.56 827.274 1230.7 828.782 1228.71 830.706 L 1227.68 830.112 C 1224.47 828.655 1222.76 826.115 1220.25 823.342 C 1207.72 824.698 1184.92 823.944 1171.43 823.926 L 1084.51 823.86 C 1069.94 823.856 1049.61 823.344 1035.3 824.275 L 1034.03 826.915 C 1032.47 827.87 1030.96 828.707 1029.37 829.595 L 1028.16 830.248 C 1025.66 828.864 1022.64 827.207 1019.07 827.175 C 959.063 826.633 898.687 826.474 838.713 827.262 C 837.85 827.273 833.871 830.494 833.093 831.126 L 832.954 830.245 C 830.121 828.863 826.904 826.514 824.548 824.393 L 823.674 823.575 C 827.246 821.953 829.017 819.537 829.104 815.473 C 829.589 792.98 829.097 770.384 829.121 747.845 L 829.195 678.209 C 829.203 670.763 830.592 639.127 827.07 634.85 C 819.046 631.291 811.136 632.212 802.623 632.04 C 755.038 631.076 706.375 633.547 658.903 631.921 L 658.589 630.901 C 652.591 627.854 641.904 632.241 640.668 623.625 C 639.262 613.823 639.858 602.028 639.895 592.13 L 640.141 533.089 C 640.184 520.39 638.065 446.312 641.818 439.994 C 653.745 434.955 807.779 436.415 830.263 438.277 C 831.659 438.846 831.492 438.801 832.974 438.647 C 834.676 437.165 835.441 436.407 836.903 434.713 z" class="rise" style="--i:1"/><path transform="translate(0,0)" fill="#ffffff" d="M 1035.3 824.275 C 1032.22 821.888 1031.56 821.437 1029.35 818.27 C 1028.05 804.978 1028.49 760.797 1029.07 747.753 C 1029.95 728.245 1026.28 644.457 1032.02 633.127 C 1036.34 631.922 1041.94 631.142 1046.42 631.148 C 1100.78 631.224 1155.19 630.698 1209.54 631.412 C 1213.87 631.469 1220.74 632.99 1224.52 635.041 C 1226.4 639.766 1227.1 810.141 1224.98 820.244 C 1223.38 821.387 1221.9 822.304 1220.25 823.342 C 1207.72 824.698 1184.92 823.944 1171.43 823.926 L 1084.51 823.86 C 1069.94 823.856 1049.61 823.344 1035.3 824.275 z" class="rise" style="--i:2"/><path transform="translate(0,0)" fill="#ffffff" d="M 836.903 434.713 C 845.016 433.634 862.361 434.108 871.06 434.127 L 930.961 434.25 L 990.548 434.408 C 998.95 434.435 1016.4 434.079 1023.89 435.231 C 1025.24 436.752 1026.04 437.413 1027.59 438.773 C 1029.37 448.165 1028.26 621.405 1027.27 622.896 C 1026.35 624.282 1025 625.332 1023.71 626.347 C 1023.01 626.464 1022.31 626.581 1021.6 626.698 C 1011.49 627.442 995.233 626.974 984.768 626.99 L 915.506 627.077 C 906.669 627.086 842.32 627.723 836.894 626.268 C 835.589 624.97 834.638 624.039 833.235 622.835 C 832.537 615.393 832.843 602.002 832.827 594.01 L 832.761 541.576 C 832.731 511.4 831.235 467.643 832.974 438.647 C 834.676 437.165 835.441 436.407 836.903 434.713 z" class="rise" style="--i:3"/><path transform="translate(0,0)" fill="#ffffff" d="M 1232.63 435.156 C 1254.61 433.84 1403.81 433.038 1417.38 436.849 C 1419.5 439.327 1420.39 447.402 1420.41 450.75 C 1420.72 507.771 1420.86 564.901 1419.95 621.911 C 1419.93 623.016 1419.7 624.137 1419.42 625.201 C 1413.12 627.257 1411.3 627.267 1404.54 627.231 C 1351.46 626.947 1298.31 627.447 1245.23 627.324 C 1242.27 627.317 1230.02 626.342 1229.34 625.021 C 1226.05 618.668 1226.93 590.547 1226.93 584.28 L 1226.9 529.89 L 1226.91 473.561 C 1226.92 463.787 1226.82 453.678 1227.15 443.911 C 1227.29 439.8 1227.93 439.745 1230.27 436.852 L 1232.63 435.156 z" class="rise" style="--i:4"/><path transform="translate(0,0)" fill="#284b63" d="M 1224.98 820.244 C 1232.6 822.891 1232.16 825.254 1227.68 830.112 C 1224.47 828.655 1222.76 826.115 1220.25 823.342 C 1221.9 822.304 1223.38 821.387 1224.98 820.244 z" class="rise" style="--i:5"/><path transform="translate(0,0)" fill="#284b63" d="M 824.548 824.393 C 830.991 821.543 838.715 822.033 832.954 830.245 C 830.121 828.863 826.904 826.514 824.548 824.393 z" class="rise" style="--i:6"/><path transform="translate(0,0)" fill="#284b63" d="M 833.235 622.835 C 834.638 624.039 835.589 624.97 836.894 626.268 C 828.743 639.209 825.634 632.274 833.235 622.835 z" class="rise" style="--i:7"/><path transform="translate(0,0)" fill="#284b63" d="M 1021.6 626.698 C 1022.31 626.581 1023.01 626.464 1023.71 626.347 C 1025.73 626.452 1034.69 625.386 1029.04 633.224 C 1027.38 635.517 1022.68 628.644 1021.6 626.698 z" class="rise" style="--i:8"/><path transform="translate(0,0)" fill="#284b63" d="M 1029.37 829.595 C 1023.81 825.122 1025.83 817.456 1034.03 826.915 C 1032.47 827.87 1030.96 828.707 1029.37 829.595 z" class="rise" style="--i:9"/><path transform="translate(0,0)" fill="#284b63" d="M 1226.33 623.955 C 1232.55 629.421 1230 628.817 1225.48 634.555 C 1218.85 629.187 1220.4 629.283 1226.33 623.955 z" class="rise" style="--i:10"/><path transform="translate(0,0)" fill="#353535" d="M 667.163 434.835 C 702.433 435.848 739.426 434.458 774.871 434.901 C 781.567 434.984 818.517 435.178 823.073 434.305 C 827.047 435.841 827.086 435.663 830.263 438.277 C 807.779 436.415 653.745 434.955 641.818 439.994 C 638.065 446.312 640.184 520.39 640.141 533.089 L 639.895 592.13 C 639.858 602.028 639.262 613.823 640.668 623.625 C 641.904 632.241 652.591 627.854 658.589 630.901 L 658.903 631.921 C 706.375 633.547 755.038 631.076 802.623 632.04 C 811.136 632.212 819.046 631.291 827.07 634.85 C 830.592 639.127 829.203 670.763 829.195 678.209 L 829.121 747.845 C 829.097 770.384 829.589 792.98 829.104 815.473 C 829.017 819.537 827.246 821.953 823.674 823.575 L 824.548 824.393 C 826.904 826.514 830.121 828.863 832.954 830.245 L 833.093 831.126 C 833.871 830.494 837.85 827.273 838.713 827.262 C 898.687 826.474 959.063 826.633 1019.07 827.175 C 1022.64 827.207 1025.66 828.864 1028.16 830.248 L 1029.37 829.595 C 1030.96 828.707 1032.47 827.87 1034.03 826.915 L 1035.3 824.275 C 1049.61 823.344 1069.94 823.856 1084.51 823.86 L 1171.43 823.926 C 1184.92 823.944 1207.72 824.698 1220.25 823.342 C 1222.76 826.115 1224.47 828.655 1227.68 830.112 L 1228.71 830.706 C 1230.7 828.782 1232.56 827.274 1235.5 827.139 C 1295.07 824.397 1357.04 829.44 1416.42 826.541 C 1417.17 822.877 1419.16 821.342 1419.74 815.472 C 1420.99 802.91 1420.6 790.13 1420.61 777.507 L 1420.58 717.866 L 1420.51 665.931 C 1420.5 657.061 1420.72 647.643 1420.15 638.81 C 1419.85 634.066 1419.26 634.327 1416.37 630.673 L 1416.89 629.298 C 1422.96 632.525 1423.02 635.962 1423.1 644.184 C 1423.68 700.831 1423.29 757.706 1423.14 814.371 C 1423.13 817.766 1420.61 821.247 1419.46 824.305 C 1419.99 827.76 1423.25 829.771 1423.19 834.625 C 1422.66 879.528 1423.22 924.519 1423.1 969.413 C 1423.08 979.395 1424.42 1006.82 1421.51 1014.61 C 1412.81 1019.94 1379.33 1018.22 1367.51 1018.18 L 1296.67 1018.08 L 1254.01 1018.07 C 1246.74 1018.06 1237.81 1019.34 1231.82 1016.12 C 1230.26 1015.29 1227.72 1013.21 1226 1014.02 C 1215.68 1020.82 1205.71 1018.17 1192.86 1018.12 L 1139.22 1018.05 L 1068.53 1018.01 C 1060.12 1018.01 1040.61 1019.6 1033.74 1016.32 C 1032.31 1015.63 1030.9 1014.9 1029.51 1014.13 L 1026.97 1015.59 C 1023.17 1017.76 1023.53 1018.04 1018.63 1018.06 C 962.416 1018.21 906.191 1018.02 849.975 1017.97 C 845.605 1017.97 839.359 1018.3 835.367 1016.8 C 834.472 1015.05 833.813 1014.69 832.312 1013.32 C 830.484 1014.11 825.459 1017.61 824.687 1017.64 C 800.412 1018.84 775.754 1018.23 751.404 1018.12 C 754.721 1042.5 754.893 1056.05 748.335 1080.13 L 838.108 1080 C 845.047 1075.15 852.251 1070.69 860.93 1070.4 C 882.992 1069.65 906.151 1070.16 928.244 1070.13 L 1074.72 1070.17 L 1156.73 1070.41 C 1170.4 1070.44 1186.02 1069.72 1199.49 1071.48 C 1204.49 1072.13 1211.19 1077.04 1215.14 1080.1 C 1238.35 1080.14 1261.57 1080.43 1284.78 1080.97 L 1282.94 1083.15 L 1217.75 1082.92 C 1231.38 1103.93 1226.96 1132.51 1198.91 1137.84 C 1185.37 1140.42 1163.41 1139.06 1148.9 1139.04 L 1063.88 1139.13 L 1063.98 1310.21 L 1171.22 1310.26 C 1184.31 1310.27 1215.66 1309.42 1227.02 1311.46 C 1232.91 1312.53 1238.41 1315.18 1242.92 1319.13 C 1249.67 1324.89 1253.85 1333.11 1254.51 1341.96 C 1256.06 1363.58 1238.34 1378.25 1217.85 1378.59 C 1189.75 1379.05 1161.71 1378.94 1133.6 1378.93 L 977.852 1378.94 L 876.882 1378.99 C 859.716 1379 840.983 1379.72 823.995 1378.32 C 807.923 1377 794.608 1360.37 794.321 1344.61 C 794.146 1335.78 797.595 1327.26 803.865 1321.04 C 818.962 1306.1 858.505 1310.32 879.419 1310.3 L 987.075 1310.24 L 987.101 1139.23 C 951.146 1138.64 915.014 1139.51 879.043 1139.07 C 866.183 1138.91 852.255 1140.34 841.001 1132.97 C 833.888 1128.29 829.009 1120.89 827.503 1112.51 C 825.293 1100.73 828.857 1091.85 835.312 1082.36 L 746.961 1082.35 C 746.09 1078.17 747.962 1071.12 748.794 1066.5 C 755.296 1030.1 746.945 992.621 725.607 962.429 C 700.164 926.238 653.165 899.513 608.743 897.981 C 604.77 897.844 571.279 898.007 571.652 898.137 C 587.917 891.86 619.691 895.843 636.968 899.644 L 636.554 840.832 C 636.527 830.838 635.819 831.701 642.717 824.78 C 641.388 823.359 637.523 820.607 637.401 819.607 C 636.513 812.345 636.983 796.319 636.989 789.23 L 637.017 681.525 C 637.012 667.91 636.928 653.535 636.596 639.86 C 636.548 637.884 640.072 633.397 641.326 630.262 C 639.007 626.528 636.744 623.866 636.773 619.355 C 637.152 560.958 636.435 502.496 636.997 444.117 C 637.11 432.316 659.352 434.813 667.163 434.835 z" class="rise" style="--i:11"/><path transform="translate(0,0)" fill="#ffffff" d="M 833.093 831.126 C 833.871 830.494 837.85 827.273 838.713 827.262 C 898.687 826.474 959.063 826.633 1019.07 827.175 C 1022.64 827.207 1025.66 828.864 1028.16 830.248 C 1030.13 840.582 1029.14 1003.18 1026.81 1012.93 C 1022.7 1014.6 1018.07 1014.92 1013.69 1015.15 C 996.177 1016.06 842.961 1016.88 836.691 1014.24 C 835.218 1013.63 833.588 1011.97 833.217 1010.37 C 831.208 1001.72 831.267 842.748 833.093 831.126 z" class="rise" style="--i:12"/><path transform="translate(0,0)" fill="#ffffff" d="M 658.903 631.921 C 706.375 633.547 755.038 631.076 802.623 632.04 C 811.136 632.212 819.046 631.291 827.07 634.85 C 830.592 639.127 829.203 670.763 829.195 678.209 L 829.121 747.845 C 829.097 770.384 829.589 792.98 829.104 815.473 C 829.017 819.537 827.246 821.953 823.674 823.575 C 787.763 825.037 747.803 823.149 711.54 823.861 C 700.175 824.084 652.375 824.402 643.492 822.386 C 640.347 818.826 639.412 812.507 639.48 807.812 C 640.293 752.201 639.468 696.601 639.64 641.006 C 639.673 630.298 651.315 631.916 658.903 631.921 z" class="rise" style="--i:13"/><path transform="translate(0,0)" fill="#ffffff" d="M 1228.71 830.706 C 1230.7 828.782 1232.56 827.274 1235.5 827.139 C 1295.07 824.397 1357.04 829.44 1416.42 826.541 C 1418.82 829.306 1419.68 829.545 1419.91 833.507 C 1420.39 842.1 1420.3 851.134 1420.33 859.737 L 1420.46 908.407 L 1420.58 968.752 C 1420.6 977.622 1421.53 1007.51 1418.35 1013.79 C 1406.14 1016.98 1235.34 1015.84 1231.96 1013.73 C 1229.82 1012.41 1229.08 1010.7 1228.72 1008.33 C 1227.16 997.88 1228.08 986.268 1228.09 975.69 L 1228.14 915.721 L 1228.2 859.859 C 1228.2 852.714 1227.8 837.337 1228.71 830.706 z" class="rise" style="--i:14"/><path transform="translate(0,0)" fill="#3c6e71" d="M 1036.01 826.971 C 1043.97 826.401 1075.73 825.931 1082.21 826.553 C 1102.79 828.527 1213.61 822.634 1224.89 830.357 C 1225.89 834.15 1225.92 838.133 1225.92 842.04 C 1225.89 890.578 1225.69 939.124 1226.12 987.662 C 1226.2 996.422 1227.76 1008.49 1221.56 1014.89 C 1213.75 1015.71 1198.93 1015.27 1190.64 1015.25 L 1133.15 1015.14 L 1072.11 1015.22 C 1061.75 1015.23 1043.38 1015.74 1033.75 1013.97 C 1033.1 1013.22 1032.45 1012.47 1031.8 1011.71 C 1030.43 954.802 1031.75 897.299 1031.34 840.323 C 1031.28 830.835 1031.47 831.303 1036.01 826.971 z" class="rise" style="--i:15"/><path transform="translate(0,0)" fill="#ffffff" d="M 827.762 1313.29 C 850.189 1312.37 878.8 1313.19 901.612 1313.18 L 1047.39 1313.17 L 1160.05 1313.22 C 1179.25 1313.23 1200.73 1312.6 1219.67 1313.64 C 1259.39 1315.84 1265.25 1368 1221.33 1375.9 C 1195.68 1376.66 1166.98 1376.04 1141 1376.03 L 988.695 1376.02 L 886.384 1376.15 C 867.541 1376.18 849.435 1376.04 829.83 1375.77 C 802.799 1375.39 787.167 1345.23 804.904 1324.17 C 810.524 1317.5 819.054 1314.6 827.762 1313.29 z" class="rise" style="--i:16"/><path transform="translate(0,0)" fill="#284b63" d="M 644.483 827.227 C 696.729 825.813 749.978 828.148 802.311 827.061 C 808.349 826.935 823.255 826.563 827.902 829.765 C 829.447 832.412 829.689 835.16 829.695 838.215 C 829.81 895.374 830.339 952.62 829.575 1009.76 C 829.555 1011.27 825.836 1013.9 824.623 1014.81 C 810.619 1016.67 767.992 1015.52 750.733 1015.77 C 747.988 1001.86 743.257 988.408 736.685 975.841 C 716.369 936.993 680.97 913.281 640.071 900.418 C 639.973 878.623 639.218 855.46 640.029 833.696 C 640.171 829.901 641.975 829.12 644.483 827.227 z" class="rise" style="--i:17"/><path transform="translate(0,0)" fill="#ffffff" d="M 858.38 1073.33 C 876.062 1072.33 902.427 1073.14 920.543 1073.15 L 1042.21 1073.25 L 1141.6 1073.37 C 1158.95 1073.35 1176.5 1072.77 1193.86 1073.54 C 1217.63 1074.97 1230.51 1104.17 1217.36 1123.34 C 1211.89 1131.33 1203.21 1134.23 1194.23 1135.91 C 1178.76 1136.61 1158.02 1136 1142.22 1136.02 L 1044.44 1136.3 L 928.553 1136.24 C 906.699 1136.21 885.147 1135.94 862.697 1135.87 C 836.87 1135.78 822.385 1114.2 833.549 1090.63 C 838.02 1081.19 848.559 1076.25 858.38 1073.33 z" class="rise" style="--i:18"/><path transform="translate(0,0)" fill="#ffffff" d="M 989.935 1139.19 L 1060.91 1139.21 L 1060.95 1310.32 L 989.958 1310.41 L 989.935 1139.19 z" class="rise" style="--i:19"/><path transform="translate(0,0)" fill="#353535" d="M 837.987 239.481 C 896.34 240.585 955.448 239.142 1013.83 238.902 C 1019.09 238.88 1027.42 244.823 1032.05 241.86 C 1032.68 241.458 1034.39 240.578 1035.15 240.3 C 1091.71 239.422 1148.89 239.896 1205.57 239.991 C 1212.11 240.001 1219.69 240.712 1224.96 243.024 C 1226.69 243.786 1227.17 243.055 1229.44 242.196 C 1225.39 249.047 1226.73 272.539 1226.72 281.58 L 1226.64 340.141 L 1226.6 394.818 C 1226.61 403.168 1226.27 416.916 1227.06 424.87 C 1228.66 427.251 1228.73 427.379 1230.81 429.315 L 1231.43 429.969 C 1233.21 433.283 1233.22 432.116 1232.63 435.156 L 1230.27 436.852 C 1224.24 438.766 1222.61 435.824 1216.78 435.573 C 1160.33 433.133 1102.6 436.029 1046.26 434.785 C 1044.22 434.854 1038.17 434.795 1036.59 435.228 C 1031.83 436.537 1032.92 438.927 1027.59 438.773 C 1026.04 437.413 1025.24 436.752 1023.89 435.231 C 1016.4 434.079 998.95 434.435 990.548 434.408 L 930.961 434.25 L 871.06 434.127 C 862.361 434.108 845.016 433.634 836.903 434.713 C 835.441 436.407 834.676 437.165 832.974 438.647 C 831.492 438.801 831.659 438.846 830.263 438.277 C 827.086 435.663 827.047 435.841 823.073 434.305 C 818.517 435.178 781.567 434.984 774.871 434.901 C 739.426 434.458 702.433 435.848 667.163 434.835 C 673.346 434.339 679.606 434.237 685.811 434.063 L 684.651 433.634 L 687.977 433.847 C 679.103 434.047 663.125 433.749 654.468 432.993 L 653.51 432.901 C 649.197 432.791 639.952 432.098 638.58 428.146 C 635.805 420.151 636.814 400.668 636.789 392.467 L 636.638 334.439 L 636.539 280.9 C 636.525 270.951 636.026 254.32 637.667 245.082 C 643.463 237.269 663.829 239.837 673.432 239.845 L 725.216 239.885 L 789.689 239.893 C 800.77 239.872 811.852 239.826 822.932 239.925 C 826.042 239.953 827.946 243.577 830.463 244.161 C 831.551 244.414 836.764 240.333 837.987 239.481 z" class="rise" style="--i:20"/><path transform="translate(0,0)" fill="#284b63" d="M 1059.71 432.836 C 1061.88 432.349 1083.88 432.458 1087.47 432.437 L 1172.76 432.146 C 1189.18 432.165 1212.62 435.201 1226.87 427.515 L 1230.81 429.315 L 1231.43 429.969 C 1233.21 433.283 1233.22 432.116 1232.63 435.156 L 1230.27 436.852 C 1224.24 438.766 1222.61 435.824 1216.78 435.573 C 1160.33 433.133 1102.6 436.029 1046.26 434.785 C 1051.84 433.462 1053.01 435.417 1059.71 432.836 z" class="rise" style="--i:21"/><path transform="translate(0,0)" fill="#284b63" d="M 653.51 432.901 C 660.759 431.087 701.914 432.183 712.121 432.161 L 784.477 432.101 C 793.847 432.103 814.232 431.565 822.925 432.58 C 822.384 433.748 822.146 433.211 823.073 434.305 C 818.517 435.178 781.567 434.984 774.871 434.901 C 739.426 434.458 702.433 435.848 667.163 434.835 C 673.346 434.339 679.606 434.237 685.811 434.063 L 684.651 433.634 L 687.977 433.847 C 679.103 434.047 663.125 433.749 654.468 432.993 L 653.51 432.901 z" class="rise" style="--i:22"/><path transform="translate(0,0)" fill="#284b63" d="M 1023.89 435.231 C 1024.9 433.631 1023.72 429.871 1028.78 427.995 C 1029.15 428.092 1029.57 428.394 1029.84 428.62 C 1036.65 434.257 1050.03 432.259 1059.71 432.836 C 1053.01 435.417 1051.84 433.462 1046.26 434.785 C 1044.22 434.854 1038.17 434.795 1036.59 435.228 C 1031.83 436.537 1032.92 438.927 1027.59 438.773 C 1026.04 437.413 1025.24 436.752 1023.89 435.231 z" class="rise" style="--i:23"/><path transform="translate(0,0)" fill="#284b63" d="M 822.925 432.58 C 829.388 429.913 833.045 423.811 836.903 434.713 C 835.441 436.407 834.676 437.165 832.974 438.647 C 831.492 438.801 831.659 438.846 830.263 438.277 C 827.086 435.663 827.047 435.841 823.073 434.305 C 822.146 433.211 822.384 433.748 822.925 432.58 z" class="rise" style="--i:24"/><path transform="translate(0,0)" fill="#3c6e71" d="M 837.42 242.064 L 955.873 241.907 C 976.519 241.859 997.26 241.513 1017.87 242.203 C 1023.94 242.406 1026.98 244.668 1027.15 250.804 C 1027.5 263.501 1027.55 276.295 1027.58 288.987 L 1027.59 360.703 L 1027.62 403.717 C 1027.61 410.633 1027.69 417.992 1027.27 424.928 C 1027.12 427.56 1023.99 429.469 1021.77 431.147 C 964.741 431.853 907.333 431.091 850.275 431.805 C 845.09 431.87 837.627 431.929 834.485 427.856 C 832.879 426.247 832.436 423.203 832.417 420.87 C 831.986 366.027 832.229 311.159 831.882 256.312 C 831.839 249.54 832.414 246.671 837.42 242.064 z" class="rise" style="--i:25"/><path transform="translate(0,0)" fill="#284b63" d="M 1035.53 242.24 C 1091.99 242.221 1148.5 242.02 1204.95 242.109 C 1210.12 242.118 1220.01 241.594 1222.77 245.74 C 1224.2 247.566 1224.49 250.758 1224.52 253.127 C 1225.37 309.512 1225.62 366.054 1224.84 422.426 C 1224.81 424.903 1220.46 427.864 1218.56 429.375 C 1218.23 429.407 1216.87 429.604 1216.39 429.585 C 1196.07 428.798 1037.62 432.836 1031.97 427.659 C 1030.83 423.058 1029.98 417.79 1029.99 413.047 C 1030.16 358.225 1030.05 303.382 1030.34 248.567 C 1030.36 245.869 1033.67 243.809 1035.53 242.24 z" class="rise" style="--i:26"/><path transform="translate(0,0)" fill="#284b63" d="M 644.254 242.267 L 756.503 242.251 C 770.749 242.221 817.307 240.437 827.419 245.078 C 828.745 247.909 829.039 251.254 829.059 254.373 C 829.344 303.965 828.869 353.568 829.566 403.16 C 829.692 412.124 831.679 424.474 823.876 429.822 C 765.889 431.117 706.975 429.209 648.904 429.738 C 646.189 429.763 643.916 429.213 641.83 427.441 C 640.124 424.761 639.838 422.467 639.816 419.329 C 639.412 362.469 639.27 305.554 639.458 248.699 C 639.468 245.804 642.182 243.946 644.254 242.267 z" class="rise" style="--i:27"/><path transform="translate(0,0)" fill="#353535" d="M 565.167 373.349 C 566.202 377.211 566.633 379.072 567.104 383.031 L 567.166 783.911 C 567.181 798.048 565.751 893.33 568.222 897.404 L 571.652 898.137 C 571.279 898.007 604.77 897.844 608.743 897.981 C 653.165 899.513 700.164 926.238 725.607 962.429 C 746.945 992.621 755.296 1030.1 748.794 1066.5 C 747.962 1071.12 746.09 1078.17 746.961 1082.35 C 746.886 1099.52 723.483 1131.43 710.911 1143.93 C 681.784 1173.1 642.145 1189.32 600.926 1188.94 C 562.627 1188.76 540.549 1179.44 508.429 1161.03 C 507.587 1160.45 506.753 1159.85 505.926 1159.25 C 478.311 1141.13 454.34 1106.28 446.962 1074.27 C 438.469 1037.89 444.793 999.623 464.538 967.907 C 487.807 930.679 522.674 908.701 564.952 898.881 L 564.9 557.073 C 564.889 497.159 563.779 432.924 565.167 373.349 z" class="rise" style="--i:28"/><path transform="translate(0,0)" fill="#ffffff" d="M 565.136 968.422 C 568.635 959.213 566.171 946.667 566.294 936.975 C 566.297 936.711 568.223 935.352 568.528 935.297 C 591.047 927.919 624.699 929.615 645.603 938.917 C 674.42 951.739 699.184 975.042 710.578 1004.16 C 720.196 1028.75 718.895 1057.78 708.695 1081.7 L 654.603 1081.55 C 647.009 1081.54 631.313 1081.15 624.5 1082.11 C 630.928 1082.97 646.672 1082.65 653.651 1082.65 L 706.242 1082.61 C 705.499 1084.35 704.716 1086.08 703.894 1087.78 C 676.335 1144.54 600.957 1166.69 545.298 1138.82 C 518.325 1125.45 497.72 1101.97 487.963 1073.49 C 479.376 1047.74 481.544 1019.61 493.976 995.48 C 509.002 965.591 533.68 947.049 564.865 936.598 C 564.773 947.207 564.864 957.816 565.136 968.422 z" class="rise" style="--i:29"/><path transform="translate(0,0)" fill="#353535" d="M 565.136 968.422 C 568.635 959.213 566.171 946.667 566.294 936.975 C 566.297 936.711 568.223 935.352 568.528 935.297 C 591.047 927.919 624.699 929.615 645.603 938.917 C 674.42 951.739 699.184 975.042 710.578 1004.16 C 720.196 1028.75 718.895 1057.78 708.695 1081.7 L 654.603 1081.55 C 647.009 1081.54 631.313 1081.15 624.5 1082.11 C 609.425 1083.88 592.216 1077.75 581.492 1066.93 C 563.598 1048.88 564.856 1028.42 564.896 1004.98 L 565.136 968.422 z" class="rise" style="--i:30"/><path transform="translate(0,0)" fill="#284b63" d="M 593.766 932.408 C 606.289 931.107 624.369 934.707 636.564 937.688 L 636.385 983.637 C 636.312 995.127 632.442 1017.89 649.421 1018.26 C 670.321 1018.72 691.493 1018.23 712.439 1018.07 C 717.141 1042.14 715.715 1057.02 707.159 1080.08 L 692.126 1080.04 L 630.944 1080.29 C 612.712 1080.25 595.819 1077.99 582.331 1064.2 C 575.897 1057.49 571.404 1049.16 569.331 1040.1 C 566.591 1028.63 567.439 1008.09 567.453 995.577 L 567.542 935.732 C 577.221 934.101 584.001 933.097 593.766 932.408 z" class="rise" style="--i:31"/><path transform="translate(0,0)" fill="#284b63" d="M 639.536 938.984 C 675.419 951.471 700.07 979.872 711.688 1015.38 C 700.01 1015.25 688.33 1015.24 676.652 1015.37 C 640.669 1016.04 639.067 1021.26 639.264 984.449 C 639.235 969.293 639.326 954.138 639.536 938.984 z" class="rise" style="--i:32"/><path transform="translate(0,0)" fill="#e8c468" d="M 1229.44 242.196 C 1238.71 240.886 1255.3 241.395 1265.13 241.405 L 1322.56 241.395 L 1383.56 241.418 C 1394.18 241.428 1404.81 241.238 1415.41 241.874 C 1418.18 242.04 1420.5 244.494 1422.46 246.216 L 1422.34 362.88 C 1422.35 381.436 1422.64 400.04 1422.45 418.547 C 1422.39 423.769 1420.48 430.335 1414.55 430.47 C 1358.6 431.741 1302.43 430.425 1246.44 430.998 C 1241.89 431.044 1235.57 430.944 1231.43 429.969 L 1230.81 429.315 C 1228.73 427.379 1228.66 427.251 1227.06 424.87 C 1226.27 416.916 1226.61 403.168 1226.6 394.818 L 1226.64 340.141 L 1226.72 281.58 C 1226.73 272.539 1225.39 249.047 1229.44 242.196 z" class="rise" style="--i:33"/><path transform="translate(0,0)" fill="#353535" d="M 1487.84 1026.37 C 1498.36 1027.06 1501.92 1033.17 1507.71 1040.79 C 1520.31 1041.33 1540.66 1043.15 1552.5 1046.88 C 1608.38 1064.49 1631.73 1074.48 1687.71 1047.15 C 1691.72 1053.62 1698.15 1063.41 1701.55 1069.92 C 1680.2 1083.58 1668.89 1086.3 1644.58 1091.36 L 1640.92 1091.89 L 1640.1 1091.85 L 1636.67 1091.58 L 1635.78 1093.16 C 1633.07 1092 1606.09 1092.94 1600.18 1092.25 C 1567.15 1088.35 1535.1 1076.31 1502.6 1069.35 C 1494.66 1074.36 1492.28 1075.2 1482.99 1076.54 L 1480.13 1076.2 C 1473.85 1076.02 1472.06 1075.01 1466.1 1073.07 C 1431 1083.6 1399.3 1093.13 1362.4 1093.77 C 1357.56 1093.85 1335.9 1092.08 1333.47 1093.45 C 1333.14 1090.97 1333.76 1091.84 1332.09 1090.47 L 1329.42 1092.52 L 1328.45 1092.15 C 1326.12 1090.93 1327.32 1091.16 1324.71 1091.43 C 1309.34 1087.75 1298.6 1082.49 1282.94 1083.15 L 1284.78 1080.97 L 1288.63 1079.74 L 1291.48 1080.58 L 1291.69 1079.12 C 1287.64 1075 1281.49 1070.7 1276.76 1067.15 C 1280.75 1061.62 1285.66 1051.96 1289.06 1045.71 C 1363.66 1089.37 1376.02 1058.85 1453.65 1046.36 C 1454.28 1053.44 1457.52 1068.2 1465.4 1070.33 C 1454.35 1051.48 1451.59 1037.43 1478.16 1028.62 C 1481.59 1027.48 1485.29 1028.78 1487.84 1026.37 z" class="rise" style="--i:34"/><path transform="translate(0,0)" fill="#353535" d="M 1479.39 1042.23 C 1484.22 1040.51 1489.55 1042.91 1491.45 1047.67 C 1493.35 1052.43 1491.14 1057.85 1486.46 1059.92 C 1483.27 1061.34 1479.56 1060.89 1476.79 1058.77 C 1474.02 1056.64 1472.64 1053.17 1473.18 1049.72 C 1473.72 1046.28 1476.11 1043.4 1479.39 1042.23 z" class="rise" style="--i:35"/><path transform="translate(0,0)" fill="#284b63" d="M 1479.36 1045.47 C 1482.51 1043.57 1486.59 1044.55 1488.54 1047.66 C 1490.49 1050.78 1489.59 1054.88 1486.51 1056.88 C 1484.47 1058.21 1481.87 1058.33 1479.71 1057.2 C 1477.56 1056.08 1476.18 1053.87 1476.1 1051.44 C 1476.03 1049.01 1477.28 1046.73 1479.36 1045.47 z" class="rise" style="--i:36"/><path transform="translate(0,0)" fill="#353535" d="M 1504.85 1040.31 C 1513.16 1043.98 1507.23 1061.35 1503.14 1067.42 C 1502.76 1067.5 1502.37 1067.58 1501.99 1067.67 C 1501.92 1067.73 1501.37 1067.65 1501.33 1067.52 C 1500.57 1065.6 1504.75 1061.57 1505.42 1058.5 C 1506.84 1052.01 1505.81 1046.48 1504.85 1040.31 z" class="rise" style="--i:37"/><path transform="translate(0,0)" fill="#353535" d="M 987.038 182.757 C 986.77 163.839 983.452 145.491 996.963 131.352 C 1004.16 123.937 1014.02 119.695 1024.35 119.565 C 1035.15 119.339 1045.59 123.462 1053.32 131.008 C 1062.42 139.968 1064.42 149.353 1064.37 161.581 C 1064.32 168.614 1064.23 175.646 1064.08 182.678 L 1328.14 182.866 L 1398.57 182.859 C 1409.07 182.86 1430.58 182.377 1440.01 183.934 C 1451.46 185.91 1462 191.448 1470.12 199.758 C 1478.25 207.91 1483.46 218.529 1484.91 229.952 C 1486.57 242.467 1485.86 268.985 1485.86 282.579 L 1485.87 379.065 L 1485.81 820.564 L 1485.73 957.196 C 1485.71 978.592 1485.54 1001.05 1485.97 1022.53 C 1486 1024.28 1486.65 1025.31 1487.84 1026.37 C 1485.29 1028.78 1481.59 1027.48 1478.16 1028.62 C 1451.59 1037.43 1454.35 1051.48 1465.4 1070.33 C 1457.52 1068.2 1454.28 1053.44 1453.65 1046.36 C 1376.02 1058.85 1363.66 1089.37 1289.06 1045.71 C 1285.66 1051.96 1280.75 1061.62 1276.76 1067.15 C 1281.49 1070.7 1287.64 1075 1291.69 1079.12 L 1291.48 1080.58 L 1288.63 1079.74 C 1282.21 1076.18 1277.84 1072.39 1272.63 1067.32 C 1277.14 1058.49 1282.48 1050.08 1287.82 1041.74 C 1301.79 1049.62 1313.14 1056.01 1328.37 1060.99 C 1360.97 1071.64 1384.09 1059.41 1414.56 1050.84 C 1428.11 1047.03 1440.39 1045.16 1454.43 1043.23 C 1462.7 1029.75 1467.81 1026.61 1483.49 1025.72 L 1484.11 470.429 L 1484.14 317.671 C 1484.16 290.81 1484.75 262.596 1483.35 235.793 C 1482.8 225.207 1479.36 214.188 1472.37 205.957 C 1461.99 193.817 1447.21 186.31 1431.29 185.1 C 1418.71 184.197 1397.23 184.82 1384.13 184.827 L 1299.62 184.733 L 1012.58 185.037 L 743.944 184.837 L 661.56 184.924 C 634.577 184.957 605.097 180.543 583.79 200.077 C 563.962 218.257 567.382 246.282 567.408 270.532 L 567.536 341.121 C 567.561 352.903 568.08 370.506 567.195 381.915 L 567.104 383.031 C 566.633 379.072 566.202 377.211 565.167 373.349 L 564.934 279.402 C 564.917 223.758 561.438 183.489 632.871 182.821 C 750.744 181.72 869.239 184.559 987.038 182.757 z" class="rise" style="--i:38"/><path transform="translate(0,0)" fill="#ffffff" d="M 1023.39 122.275 C 1028.64 122.229 1032.1 122.619 1036.99 124.306 C 1065.16 134.016 1061.3 159.695 1061.23 182.693 L 1029.5 182.735 C 1016.37 182.722 1003.11 182.86 989.994 182.701 C 990.146 153.592 985.94 128.016 1023.39 122.275 z" class="rise" style="--i:39"/><path transform="translate(0,0)" fill="#353535" d="M 1422.46 246.216 C 1422.87 246.66 1423.28 247.104 1423.68 247.548 C 1424.27 298.052 1422.92 379.272 1423.99 426.66 C 1421.66 428.547 1419.36 430.462 1417.09 432.405 C 1417.84 437.271 1423.16 438.383 1423.13 442.781 C 1422.78 501.24 1423.28 559.72 1422.72 618.176 C 1422.69 621.18 1422.36 623.934 1420.03 626.065 L 1419.42 625.201 C 1419.7 624.137 1419.93 623.016 1419.95 621.911 C 1420.86 564.901 1420.72 507.771 1420.41 450.75 C 1420.39 447.402 1419.5 439.327 1417.38 436.849 C 1403.81 433.038 1254.61 433.84 1232.63 435.156 C 1233.22 432.116 1233.21 433.283 1231.43 429.969 C 1235.57 430.944 1241.89 431.044 1246.44 430.998 C 1302.43 430.425 1358.6 431.741 1414.55 430.47 C 1420.48 430.335 1422.39 423.769 1422.45 418.547 C 1422.64 400.04 1422.35 381.436 1422.34 362.88 L 1422.46 246.216 z" class="rise" style="--i:40"/><path transform="translate(0,0)" fill="#284b63" d="M 832.312 1013.32 C 833.813 1014.69 834.472 1015.05 835.367 1016.8 C 833.589 1015.58 833.589 1015.27 832.312 1013.32 z" class="rise" style="--i:41"/><path transform="translate(0,0)" fill="#353535" d="M 1329.42 1092.52 L 1332.09 1090.47 C 1333.76 1091.84 1333.14 1090.97 1333.47 1093.45 C 1359.97 1127.87 1383.05 1166.52 1408.4 1201.84 C 1413.07 1208.35 1413.89 1203.47 1417.15 1207.5 C 1417.15 1215 1412.55 1225.19 1408.23 1231.78 C 1373.12 1285.36 1261.98 1279.44 1244.82 1212.84 C 1244.31 1210.85 1243.7 1207.47 1244.89 1205.75 L 1248.63 1205.12 C 1251.12 1203.29 1315.95 1104.06 1324.71 1091.43 C 1327.32 1091.16 1326.12 1090.93 1328.45 1092.15 L 1329.42 1092.52 z" class="rise" style="--i:42"/><path transform="translate(0,0)" fill="#ffffff" d="M 1328.45 1092.15 L 1329.42 1092.52 C 1356.28 1128.14 1380.96 1169.73 1407.81 1205.69 C 1357.64 1206.87 1302.15 1205.95 1251.78 1205.7 C 1277.67 1171 1301.24 1127.13 1328.45 1092.15 z" class="rise" style="--i:43"/><path transform="translate(0,0)" fill="#f4a462" d="M 1248.24 1208.52 C 1301.68 1207.68 1360.97 1208.03 1414.23 1208.96 C 1409.34 1226.68 1405.67 1232.41 1392.27 1245.05 C 1348.92 1277.77 1269.25 1272.04 1248.28 1215.16 C 1247.17 1212.14 1246.75 1211.21 1248.24 1208.52 z" class="rise" style="--i:44"/><path transform="translate(0,0)" fill="#353535" d="M 1640.92 1091.89 L 1644.58 1091.36 C 1663.61 1118.8 1682.44 1146.38 1701.06 1174.1 C 1706.79 1182.5 1719.85 1202.8 1725.6 1209.84 C 1709.89 1289.96 1565.96 1284.82 1553.44 1207.99 L 1554.01 1206.21 C 1560 1205.08 1561.05 1206.04 1564.22 1200.94 C 1569.11 1193.1 1573.9 1185.21 1578.96 1177.49 C 1597.54 1149.13 1616.48 1121.02 1635.78 1093.16 L 1636.67 1091.58 L 1640.1 1091.85 L 1640.92 1091.89 z" class="rise" style="--i:45"/><path transform="translate(0,0)" fill="#ffffff" d="M 1640.1 1091.85 L 1640.92 1091.89 C 1644.07 1095.42 1658.29 1117.08 1661.94 1122.44 C 1680.56 1149.76 1700.81 1177.81 1718.45 1205.61 C 1668.23 1206.73 1614.8 1205.9 1564.3 1205.86 C 1589.55 1170.12 1614.52 1128.95 1640.1 1091.85 z" class="rise" style="--i:46"/><path transform="translate(0,0)" fill="#f4a462" d="M 1588.75 1208.5 L 1723 1208.48 C 1722.21 1211.98 1721.25 1215.44 1720.14 1218.85 C 1714.09 1236.93 1699.95 1248.15 1683.49 1256.27 C 1643.6 1273.28 1584.87 1266.28 1562.39 1225.02 C 1559.57 1219.85 1557.79 1214.26 1555.96 1208.68 L 1588.75 1208.5 z" class="rise" style="--i:47"/><path transform="translate(0,0)" fill="#353535" d="M 1480.17 1205.47 C 1482.56 1222.18 1478.81 1314.35 1482.29 1320.79 C 1492.94 1320.8 1503.57 1321.82 1514.03 1323.84 C 1548.49 1330.53 1577.86 1348.81 1597.67 1378.01 L 1363.36 1378.18 C 1367.03 1372.41 1371.27 1367.02 1376.02 1362.1 C 1404.66 1332.05 1439.94 1321.62 1480.03 1320.86 C 1479.86 1282.4 1479.91 1243.93 1480.17 1205.47 z" class="rise" style="--i:48"/><path transform="translate(0,0)" fill="#353535" d="M 431.062 1222.77 L 444.16 1232.34 L 446.422 1233.9 C 452.172 1238.06 457.886 1242.26 463.564 1246.51 C 445.459 1273.35 429.498 1301.79 412.531 1329.33 C 404.627 1340.67 397.364 1357.39 388.417 1367.59 C 369.524 1389.13 330.788 1379.91 326.544 1350.54 C 323.935 1332.48 336.123 1323.54 346.734 1311.63 C 354.438 1302.98 362.532 1295.01 370.421 1286.87 C 390.97 1265.82 411.186 1244.45 431.062 1222.77 z" class="rise" style="--i:49"/><path transform="translate(0,0)" fill="#353535" d="M 1480.13 1076.2 L 1482.99 1076.54 L 1482.96 1251.66 C 1482.96 1262.73 1483.79 1313.64 1482.29 1320.79 C 1478.81 1314.35 1482.56 1222.18 1480.17 1205.47 C 1479.45 1192.94 1480.01 1173.84 1480 1160.66 L 1480.13 1076.2 z" class="rise" style="--i:50"/><path transform="translate(0,0)" fill="#353535" d="M 505.926 1159.25 C 506.753 1159.85 507.587 1160.45 508.429 1161.03 C 488.839 1182.64 465.244 1211.22 446.422 1233.9 L 444.16 1232.34 C 452.762 1220.94 463.767 1208.97 473.137 1198.07 L 505.926 1159.25 z" class="rise" style="--i:51"/></g></svg>